<svg id="svg" version="1.1" xmlns="http://www.w3.org/2000/svg" xmlns:xlink="http://www.w3.org/1999/xlink" width="400" height="400" viewBox="0, 0, 400,400"><g id="svgg"><path id="path0" d="M199.000 58.000 C 198.864 58.220,197.784 58.400,196.600 58.400 C 195.416 58.400,194.336 58.580,194.200 58.800 C 194.064 59.020,193.333 59.200,192.576 59.200 C 191.819 59.200,191.200 59.355,191.200 59.544 C 191.200 59.733,190.233 59.988,189.051 60.110 C 187.870 60.232,186.126 60.707,185.176 61.166 C 184.227 61.625,183.292 62.000,183.100 62.000 C 182.692 62.000,177.496 64.446,177.200 64.777 C 177.090 64.901,176.505 65.256,175.900 65.568 C 175.295 65.880,174.800 66.285,174.800 66.468 C 174.800 66.650,174.440 66.800,174.000 66.800 C 173.560 66.800,173.200 66.980,173.200 67.200 C 173.200 67.420,172.957 67.600,172.659 67.600 C 172.362 67.600,171.554 68.140,170.863 68.800 C 170.172 69.460,169.440 70.000,169.235 70.000 C 168.736 70.000,158.400 80.202,158.400 80.695 C 158.400 80.907,157.905 81.606,157.300 82.248 C 156.695 82.889,155.945 83.906,155.632 84.507 C 155.320 85.108,154.915 85.600,154.732 85.600 C 154.550 85.600,154.400 85.878,154.400 86.217 C 154.400 86.556,154.040 87.220,153.600 87.692 C 153.160 88.164,152.800 88.787,152.800 89.075 C 152.800 89.364,152.620 89.600,152.400 89.600 C 152.180 89.600,152.000 89.960,152.000 90.400 C 152.000 90.840,151.820 91.200,151.600 91.200 C 151.380 91.200,151.200 91.560,151.200 92.000 C 151.200 92.440,151.020 92.800,150.800 92.800 C 150.580 92.800,150.400 93.072,150.400 93.405 C 150.400 93.738,150.220 94.368,150.000 94.805 C 149.780 95.242,149.420 95.958,149.200 96.395 C 148.980 96.832,148.800 97.552,148.800 97.995 C 148.800 98.438,148.620 98.800,148.400 98.800 C 148.180 98.800,148.000 99.239,148.000 99.776 C 148.000 100.313,147.820 100.864,147.600 101.000 C 147.380 101.136,147.200 101.856,147.200 102.600 C 147.200 103.344,147.020 104.064,146.800 104.200 C 146.580 104.336,146.400 105.121,146.400 105.944 C 146.400 106.767,146.236 107.611,146.035 107.820 C 145.244 108.644,145.105 114.441,144.952 152.900 L 144.792 192.800 123.396 192.800 C 111.628 192.800,102.000 192.955,102.000 193.145 C 102.000 193.335,100.875 193.585,99.500 193.701 C 96.827 193.926,93.600 194.799,93.600 195.297 C 93.600 195.464,93.161 195.600,92.624 195.600 C 92.087 195.600,91.536 195.780,91.400 196.000 C 91.264 196.220,90.803 196.400,90.376 196.400 C 89.949 196.400,89.600 196.580,89.600 196.800 C 89.600 197.020,89.240 197.200,88.800 197.200 C 88.360 197.200,88.000 197.380,88.000 197.600 C 88.000 197.820,87.640 198.000,87.200 198.000 C 86.760 198.000,86.400 198.150,86.400 198.332 C 86.400 198.515,85.905 198.920,85.300 199.232 C 84.695 199.545,83.851 200.115,83.425 200.500 C 82.998 200.885,82.504 201.200,82.327 201.200 C 82.149 201.200,81.085 202.100,79.961 203.200 C 78.838 204.300,77.788 205.200,77.627 205.200 C 77.467 205.200,77.080 205.693,76.768 206.295 C 76.455 206.897,75.480 208.133,74.600 209.041 C 72.591 211.114,71.946 211.930,71.232 213.306 C 70.920 213.908,70.515 214.400,70.332 214.400 C 70.150 214.400,70.000 214.760,70.000 215.200 C 70.000 215.640,69.820 216.000,69.600 216.000 C 69.380 216.000,69.200 216.360,69.200 216.800 C 69.200 217.240,69.020 217.600,68.800 217.600 C 68.580 217.600,68.400 217.960,68.400 218.400 C 68.400 218.840,68.220 219.200,68.000 219.200 C 67.780 219.200,67.600 219.549,67.600 219.976 C 67.600 220.403,67.420 220.864,67.200 221.000 C 66.980 221.136,66.800 221.687,66.800 222.224 C 66.800 222.761,66.620 223.200,66.400 223.200 C 66.180 223.200,66.000 223.920,66.000 224.800 C 66.000 225.680,65.820 226.400,65.600 226.400 C 65.380 226.400,65.200 227.109,65.200 227.976 C 65.200 228.843,65.020 229.664,64.800 229.800 C 64.257 230.136,64.257 245.600,64.800 245.600 C 65.020 245.600,65.200 246.320,65.200 247.200 C 65.200 248.080,65.361 248.800,65.558 248.800 C 65.755 248.800,65.985 249.520,66.069 250.400 L 66.221 252.000 57.191 252.000 C 50.700 252.000,48.025 252.135,47.680 252.480 C 47.307 252.853,47.200 249.564,47.200 237.680 C 47.200 227.760,47.060 222.400,46.800 222.400 C 46.575 222.400,46.400 221.275,46.400 219.824 C 46.400 218.407,46.220 217.136,46.000 217.000 C 45.780 216.864,45.600 216.223,45.600 215.576 C 45.600 214.929,45.420 214.400,45.200 214.400 C 44.980 214.400,44.800 214.040,44.800 213.600 C 44.800 213.160,44.620 212.800,44.400 212.800 C 44.180 212.800,44.000 212.440,44.000 212.000 C 44.000 211.560,43.820 211.200,43.600 211.200 C 43.380 211.200,43.200 210.996,43.200 210.747 C 43.200 210.498,42.883 210.003,42.495 209.647 C 42.107 209.291,41.342 208.326,40.795 207.503 C 40.248 206.679,39.647 206.004,39.460 206.003 C 39.274 206.001,38.617 205.460,38.000 204.800 C 37.383 204.140,36.591 203.600,36.240 203.600 C 35.888 203.600,35.600 203.420,35.600 203.200 C 35.600 202.980,35.375 202.796,35.100 202.791 C 34.825 202.786,34.150 202.430,33.600 202.000 C 33.050 201.570,32.206 201.214,31.724 201.209 C 31.242 201.204,30.748 201.039,30.626 200.842 C 30.115 200.016,19.802 199.238,19.069 199.971 C 18.833 200.207,18.057 200.400,17.344 200.400 C 16.631 200.400,15.936 200.580,15.800 200.800 C 15.664 201.020,15.239 201.200,14.856 201.200 C 13.981 201.200,12.007 202.099,12.003 202.500 C 12.001 202.665,11.640 202.800,11.200 202.800 C 10.760 202.800,10.400 202.980,10.400 203.200 C 10.400 203.420,10.211 203.600,9.979 203.600 C 9.270 203.600,2.979 210.148,2.373 211.516 C 2.061 212.222,1.669 212.800,1.502 212.800 C 1.336 212.800,1.200 213.124,1.200 213.520 C 1.200 213.916,0.975 214.465,0.700 214.740 C -0.031 215.472,-0.031 270.456,0.700 270.700 C 0.999 270.800,1.200 271.576,1.200 272.633 C 1.200 273.605,1.380 274.400,1.600 274.400 C 1.820 274.400,2.000 274.940,2.000 275.600 C 2.000 276.260,2.180 276.800,2.400 276.800 C 2.620 276.800,2.800 277.340,2.800 278.000 C 2.800 278.660,2.980 279.200,3.200 279.200 C 3.420 279.200,3.600 279.740,3.600 280.400 C 3.600 281.060,3.780 281.600,4.000 281.600 C 4.220 281.600,4.400 281.960,4.400 282.400 C 4.400 282.840,4.580 283.200,4.800 283.200 C 5.020 283.200,5.200 283.560,5.200 284.000 C 5.200 284.440,5.380 284.800,5.600 284.800 C 5.820 284.800,6.000 285.160,6.000 285.600 C 6.000 286.040,6.180 286.400,6.400 286.400 C 6.620 286.400,6.800 286.760,6.800 287.200 C 6.800 287.640,6.980 288.000,7.200 288.000 C 7.420 288.000,7.600 288.540,7.600 289.200 C 7.600 289.860,7.420 290.400,7.200 290.400 C 6.658 290.400,6.658 304.665,7.200 305.000 C 7.420 305.136,7.600 306.047,7.600 307.024 C 7.600 308.001,7.780 308.800,8.000 308.800 C 8.220 308.800,8.400 309.340,8.400 310.000 C 8.400 310.660,8.580 311.200,8.800 311.200 C 9.020 311.200,9.200 311.740,9.200 312.400 C 9.200 313.060,9.380 313.600,9.600 313.600 C 9.820 313.600,10.000 314.069,10.000 314.642 C 10.000 315.660,12.678 321.270,13.291 321.533 C 13.461 321.607,13.600 321.922,13.600 322.233 C 13.600 322.545,13.741 322.800,13.914 322.800 C 14.086 322.800,14.552 323.350,14.949 324.022 C 15.772 325.414,23.387 333.200,23.927 333.200 C 24.122 333.200,24.806 333.695,25.448 334.300 C 26.089 334.905,27.151 335.670,27.807 335.999 C 28.463 336.329,29.090 336.693,29.200 336.807 C 29.310 336.922,30.660 337.616,32.200 338.350 C 33.740 339.084,35.313 339.845,35.695 340.042 C 36.077 340.239,36.716 340.400,37.115 340.400 C 37.514 340.400,38.012 340.572,38.223 340.783 C 38.433 340.993,40.089 341.289,41.903 341.440 C 43.716 341.591,45.200 341.869,45.200 342.058 C 45.200 342.247,115.999 342.400,203.600 342.400 C 290.720 342.400,362.000 342.247,362.000 342.059 C 362.000 341.872,363.473 341.605,365.273 341.466 C 367.073 341.327,368.729 341.031,368.953 340.807 C 369.177 340.583,369.763 340.400,370.256 340.400 C 370.749 340.400,371.264 340.220,371.400 340.000 C 371.536 339.780,372.087 339.600,372.624 339.600 C 373.161 339.600,373.600 339.420,373.600 339.200 C 373.600 338.980,373.960 338.800,374.400 338.800 C 374.840 338.800,375.200 338.620,375.200 338.400 C 375.200 338.180,375.560 338.000,376.000 338.000 C 376.440 338.000,376.800 337.820,376.800 337.600 C 376.800 337.380,377.036 337.200,377.325 337.200 C 377.613 337.200,378.236 336.840,378.708 336.400 C 379.180 335.960,379.804 335.600,380.095 335.600 C 380.386 335.600,380.883 335.240,381.200 334.800 C 381.517 334.360,382.019 334.000,382.314 334.000 C 382.610 334.000,383.729 333.100,384.800 332.000 C 385.871 330.900,386.940 330.000,387.174 330.000 C 387.408 330.000,387.600 329.852,387.600 329.672 C 387.600 329.491,388.388 328.520,389.352 327.515 C 390.315 326.509,391.434 325.127,391.838 324.443 C 392.242 323.759,392.714 323.200,392.886 323.200 C 393.059 323.200,393.200 322.930,393.200 322.600 C 393.200 322.270,393.380 322.000,393.600 322.000 C 393.820 322.000,394.000 321.730,394.000 321.400 C 394.000 321.070,394.180 320.800,394.400 320.800 C 394.620 320.800,394.800 320.440,394.800 320.000 C 394.800 319.560,394.980 319.200,395.200 319.200 C 395.420 319.200,395.600 318.840,395.600 318.400 C 395.600 317.960,395.780 317.600,396.000 317.600 C 396.220 317.600,396.400 317.240,396.400 316.800 C 396.400 316.360,396.580 316.000,396.800 316.000 C 397.020 316.000,397.200 315.640,397.200 315.200 C 397.200 314.760,397.380 314.400,397.600 314.400 C 397.820 314.400,398.000 313.860,398.000 313.200 C 398.000 312.540,398.180 312.000,398.400 312.000 C 398.620 312.000,398.800 311.496,398.800 310.880 C 398.800 310.264,399.025 309.535,399.300 309.260 C 399.677 308.883,399.800 305.937,399.800 297.313 C 399.800 288.512,399.684 285.828,399.300 285.700 C 399.025 285.608,398.800 285.006,398.800 284.361 C 398.800 283.717,398.641 282.877,398.447 282.495 C 398.104 281.822,397.859 281.250,396.736 278.500 C 396.444 277.785,396.069 277.200,395.902 277.200 C 395.736 277.200,395.600 276.840,395.600 276.400 C 395.600 275.960,395.420 275.600,395.200 275.600 C 394.980 275.600,394.800 275.280,394.800 274.888 C 394.800 274.497,394.440 273.917,394.000 273.600 C 393.560 273.283,393.200 272.769,393.200 272.459 C 393.200 272.148,392.866 271.603,392.457 271.247 C 392.049 270.891,391.590 270.205,391.438 269.723 C 391.155 268.829,384.215 261.600,383.639 261.600 C 383.465 261.600,382.907 261.240,382.400 260.800 C 381.893 260.360,381.185 260.000,380.827 260.000 C 380.469 260.000,379.917 259.640,379.600 259.200 C 379.283 258.760,378.703 258.400,378.312 258.400 C 377.920 258.400,377.600 258.220,377.600 258.000 C 377.600 257.780,377.240 257.600,376.800 257.600 C 376.360 257.600,376.000 257.420,376.000 257.200 C 376.000 256.980,375.730 256.800,375.400 256.800 C 375.070 256.800,374.800 256.620,374.800 256.400 C 374.800 256.180,374.451 256.000,374.024 256.000 C 373.597 256.000,373.136 255.820,373.000 255.600 C 372.864 255.380,372.313 255.200,371.776 255.200 C 371.239 255.200,370.800 255.020,370.800 254.800 C 370.800 254.580,370.260 254.400,369.600 254.400 C 368.940 254.400,368.400 254.220,368.400 254.000 C 368.400 253.780,367.680 253.600,366.800 253.600 C 365.920 253.600,365.200 253.420,365.200 253.200 C 365.200 252.978,364.141 252.800,362.824 252.800 C 361.517 252.800,360.336 252.620,360.200 252.400 C 360.047 252.152,356.385 252.000,350.545 252.000 L 341.136 252.000 341.420 249.300 C 341.576 247.815,341.861 246.540,342.052 246.467 C 342.243 246.393,342.400 244.728,342.400 242.767 C 342.400 240.656,342.563 239.200,342.800 239.200 C 343.020 239.200,343.200 238.390,343.200 237.400 C 343.200 236.410,343.020 235.600,342.800 235.600 C 342.565 235.600,342.400 234.208,342.400 232.224 C 342.400 230.367,342.244 228.751,342.053 228.633 C 341.862 228.514,341.580 227.313,341.428 225.963 C 341.275 224.614,341.002 223.215,340.822 222.855 C 340.641 222.495,340.310 221.750,340.086 221.200 C 338.750 217.920,337.012 214.400,336.729 214.400 C 336.548 214.400,336.400 214.164,336.400 213.875 C 336.400 213.587,336.040 212.964,335.600 212.492 C 335.160 212.020,334.800 211.512,334.800 211.364 C 334.800 211.215,334.476 210.803,334.081 210.447 C 333.686 210.091,332.927 209.170,332.395 208.400 C 331.238 206.724,327.252 202.800,326.707 202.800 C 326.495 202.800,325.844 202.305,325.260 201.700 C 324.677 201.095,323.705 200.345,323.100 200.032 C 322.495 199.720,322.000 199.315,322.000 199.132 C 322.000 198.950,321.730 198.800,321.400 198.800 C 321.070 198.800,320.800 198.620,320.800 198.400 C 320.800 198.180,320.440 198.000,320.000 198.000 C 319.560 198.000,319.200 197.820,319.200 197.600 C 319.200 197.380,318.840 197.200,318.400 197.200 C 317.960 197.200,317.600 197.020,317.600 196.800 C 317.600 196.580,317.364 196.400,317.075 196.400 C 316.786 196.400,315.805 196.040,314.894 195.600 C 313.984 195.160,312.971 194.800,312.643 194.800 C 312.315 194.800,311.943 194.632,311.817 194.427 C 311.690 194.222,310.149 193.928,308.393 193.775 C 306.637 193.622,305.200 193.340,305.200 193.148 C 305.200 192.953,289.893 192.800,270.400 192.800 L 235.600 192.800 235.600 170.400 L 235.600 148.000 237.976 148.000 C 239.283 148.000,240.464 147.820,240.600 147.600 C 240.736 147.380,241.917 147.200,243.224 147.200 C 244.541 147.200,245.600 147.022,245.600 146.800 C 245.600 146.580,246.320 146.400,247.200 146.400 C 248.080 146.400,248.800 146.220,248.800 146.000 C 248.800 145.780,249.340 145.600,250.000 145.600 C 250.660 145.600,251.200 145.420,251.200 145.200 C 251.200 144.980,251.562 144.800,252.005 144.800 C 252.754 144.800,254.341 144.101,254.800 143.568 C 254.910 143.440,255.585 143.081,256.300 142.770 C 257.015 142.459,257.600 142.083,257.600 141.934 C 257.600 141.785,258.185 141.535,258.900 141.378 C 259.614 141.221,260.491 140.757,260.847 140.346 C 261.203 139.936,261.671 139.600,261.888 139.600 C 262.104 139.600,262.808 139.105,263.451 138.500 C 265.506 136.568,267.839 135.600,270.438 135.600 C 271.746 135.600,272.800 135.422,272.800 135.200 C 272.800 134.980,273.340 134.800,274.000 134.800 C 274.660 134.800,275.200 134.620,275.200 134.400 C 275.200 134.180,275.740 134.000,276.400 134.000 C 277.060 134.000,277.600 133.820,277.600 133.600 C 277.600 133.380,277.960 133.200,278.400 133.200 C 278.840 133.200,279.200 133.020,279.200 132.800 C 279.200 132.580,279.560 132.400,280.000 132.400 C 280.440 132.400,280.800 132.220,280.800 132.000 C 280.800 131.780,281.043 131.600,281.341 131.600 C 281.638 131.600,282.446 131.060,283.137 130.400 C 283.828 129.740,284.546 129.200,284.733 129.200 C 285.203 129.200,288.380 126.099,289.651 124.400 C 291.544 121.868,293.445 120.000,294.128 120.000 C 294.498 120.000,294.800 119.820,294.800 119.600 C 294.800 119.380,295.695 119.200,296.788 119.200 C 299.507 119.200,302.800 117.353,302.800 115.829 C 302.800 115.483,302.980 115.200,303.200 115.200 C 303.753 115.200,303.710 109.752,303.149 108.704 C 302.469 107.434,300.915 106.000,300.218 106.000 C 299.878 106.000,299.600 105.820,299.600 105.600 C 299.600 105.380,298.700 105.200,297.600 105.200 L 295.600 105.200 295.600 103.864 C 295.600 102.106,292.619 98.800,291.034 98.800 C 290.459 98.800,289.608 98.575,289.142 98.300 C 288.465 97.900,288.259 97.900,288.114 98.300 C 288.015 98.575,287.486 98.800,286.940 98.800 C 285.208 98.800,282.400 100.877,282.400 102.158 C 282.400 102.485,282.220 102.864,282.000 103.000 C 281.780 103.136,281.600 104.407,281.600 105.824 C 281.600 107.275,281.425 108.400,281.200 108.400 C 280.951 108.400,280.800 106.075,280.800 102.224 C 280.800 98.537,280.639 95.948,280.400 95.800 C 280.180 95.664,280.000 94.674,280.000 93.600 C 280.000 92.526,279.820 91.536,279.600 91.400 C 279.380 91.264,279.200 90.623,279.200 89.976 C 279.200 89.329,279.020 88.800,278.800 88.800 C 278.580 88.800,278.400 88.260,278.400 87.600 C 278.400 86.940,278.220 86.400,278.000 86.400 C 277.780 86.400,277.601 86.085,277.603 85.700 C 277.607 84.621,273.981 77.698,272.721 76.380 C 272.104 75.735,271.600 75.023,271.600 74.799 C 271.600 74.265,264.135 66.800,263.601 66.800 C 263.377 66.800,262.628 66.260,261.937 65.600 C 261.246 64.940,260.438 64.400,260.141 64.400 C 259.843 64.400,259.600 64.241,259.600 64.047 C 259.600 63.852,259.285 63.593,258.900 63.470 C 258.515 63.348,257.047 62.599,255.638 61.807 C 254.229 61.016,252.294 60.261,251.338 60.130 C 250.382 59.998,249.600 59.736,249.600 59.546 C 249.600 59.356,248.880 59.200,248.000 59.200 C 247.120 59.200,246.400 59.020,246.400 58.800 C 246.400 58.580,245.500 58.400,244.400 58.400 C 243.300 58.400,242.400 58.220,242.400 58.000 C 242.400 57.738,234.941 57.600,220.824 57.600 C 206.871 57.600,199.160 57.741,199.000 58.000 M245.143 72.133 C 246.982 72.754,249.142 73.636,249.943 74.093 C 250.744 74.549,252.099 75.300,252.954 75.762 C 254.669 76.686,260.084 81.801,261.677 84.000 C 269.262 94.471,269.524 109.170,262.323 120.300 L 260.706 122.800 258.349 122.800 C 253.767 122.800,250.800 125.471,250.800 129.596 C 250.800 132.168,243.360 134.400,234.784 134.400 C 228.212 134.400,226.094 134.832,224.251 136.548 C 222.339 138.328,222.358 138.023,222.361 166.429 C 222.362 180.509,222.263 192.293,222.139 192.615 C 221.944 193.122,217.662 193.200,190.152 193.200 L 158.389 193.200 158.528 152.700 C 158.622 125.684,158.812 111.534,159.101 110.200 C 163.516 89.785,177.817 75.759,198.800 71.265 C 199.846 71.041,209.232 70.905,221.200 70.941 L 241.800 71.003 245.143 72.133 M210.552 96.175 C 206.728 97.839,205.985 103.926,209.338 106.123 C 213.675 108.964,218.794 106.495,218.799 101.559 C 218.802 97.267,214.498 94.457,210.552 96.175 M280.438 110.922 C 280.121 111.239,280.000 111.135,280.000 110.547 C 280.000 109.489,280.559 108.928,280.738 109.807 C 280.813 110.180,280.678 110.682,280.438 110.922 M301.215 206.183 C 311.383 207.477,320.840 213.462,324.942 221.200 C 325.350 221.970,326.004 223.140,326.395 223.800 C 330.420 230.603,330.495 243.513,326.554 251.290 L 325.587 253.200 203.623 253.200 L 81.659 253.200 80.650 251.100 C 77.878 245.327,76.816 235.850,78.372 230.754 C 80.610 223.422,82.493 219.988,86.543 215.855 C 92.371 209.907,97.687 207.244,105.800 206.210 C 112.156 205.399,294.859 205.375,301.215 206.183 M27.000 213.826 C 28.850 214.599,31.567 217.304,32.614 219.415 C 33.354 220.908,33.406 222.039,33.512 238.888 L 33.624 256.775 32.020 257.788 C 31.138 258.344,30.308 258.800,30.176 258.800 C 28.576 258.800,19.935 266.267,16.523 270.600 L 15.262 272.200 14.802 271.000 C 13.122 266.624,12.767 262.134,12.544 242.400 C 12.314 222.184,12.428 220.827,14.605 217.765 C 17.492 213.705,22.728 212.041,27.000 213.826 M361.280 266.033 C 382.418 270.349,393.483 292.735,383.902 311.800 C 382.333 314.923,378.767 319.626,376.886 321.055 C 376.069 321.676,374.919 322.610,374.330 323.131 C 373.742 323.652,372.482 324.476,371.530 324.963 C 370.579 325.450,369.440 326.041,369.000 326.277 C 367.770 326.938,366.420 327.452,363.800 328.260 C 361.482 328.975,356.004 329.000,203.600 329.000 L 45.800 329.000 42.200 327.831 C 40.220 327.189,38.420 326.532,38.200 326.371 C 37.980 326.211,36.872 325.567,35.739 324.940 C 23.217 318.016,17.051 302.385,21.246 288.200 C 21.956 285.797,24.519 280.211,25.191 279.600 C 25.312 279.490,26.218 278.410,27.204 277.200 C 31.578 271.831,36.949 268.404,43.846 266.579 L 47.400 265.638 203.280 265.619 C 313.586 265.606,359.780 265.727,361.280 266.033 " stroke="none" fill="#1b2424" fill-rule="evenodd"></path><path id="path1" d="M200.600 71.600 C 200.160 71.789,199.183 71.956,198.428 71.972 C 197.674 71.987,196.504 72.168,195.828 72.373 C 195.153 72.578,193.790 72.969,192.800 73.242 C 191.810 73.516,190.829 73.888,190.620 74.070 C 190.411 74.251,189.995 74.400,189.695 74.400 C 188.656 74.400,183.783 76.952,180.204 79.370 C 170.226 86.112,162.589 97.028,160.231 107.919 C 158.975 113.721,158.800 114.980,158.800 118.207 L 158.800 121.554 161.700 122.469 C 163.295 122.973,165.463 123.883,166.518 124.492 C 167.572 125.101,168.573 125.600,168.742 125.600 C 168.911 125.600,169.398 125.915,169.825 126.300 C 170.251 126.685,171.410 127.615,172.400 128.367 C 187.457 139.802,187.249 165.170,172.000 177.309 C 167.687 180.742,159.546 184.302,158.701 183.125 C 158.429 182.746,158.391 182.804,158.562 183.333 C 158.693 183.736,158.800 186.032,158.800 188.435 L 158.800 192.805 190.295 192.702 C 221.451 192.601,221.790 192.591,221.887 191.800 C 221.942 191.360,221.884 191.225,221.760 191.500 C 221.588 191.878,219.351 192.000,212.558 192.000 L 203.582 192.000 203.691 184.500 L 203.800 177.000 212.571 176.892 C 218.345 176.821,221.431 176.927,221.601 177.201 C 221.743 177.431,221.846 176.732,221.829 175.649 C 221.813 174.565,221.697 173.844,221.571 174.047 C 221.440 174.260,217.622 174.370,212.571 174.308 L 203.800 174.200 203.691 166.686 L 203.582 159.171 212.727 159.286 L 221.873 159.400 221.836 157.800 L 221.800 156.200 212.700 156.314 L 203.600 156.429 203.600 148.600 L 203.600 140.771 212.800 140.886 L 222.001 141.000 222.000 140.060 C 221.999 136.418,224.914 134.400,230.176 134.400 C 237.880 134.400,244.619 133.265,248.800 131.264 C 250.083 130.650,250.230 130.398,250.553 128.244 C 251.154 124.245,253.629 122.400,258.391 122.400 L 260.283 122.400 262.141 119.605 C 263.164 118.067,264.000 116.715,264.000 116.600 C 264.000 116.485,264.332 115.628,264.738 114.696 C 271.184 99.887,264.417 81.855,249.672 74.553 C 246.770 73.116,246.040 72.872,241.400 71.788 C 238.655 71.148,202.046 70.979,200.600 71.600 M215.929 95.824 C 220.529 98.119,220.476 104.937,215.841 107.180 C 208.249 110.856,202.982 100.126,210.217 95.724 C 211.341 95.039,214.466 95.095,215.929 95.824 M121.200 206.370 C 120.870 206.560,116.820 206.798,112.200 206.898 C 105.024 207.055,103.421 207.206,101.200 207.935 C 99.770 208.405,98.285 208.792,97.900 208.795 C 97.515 208.798,97.200 208.980,97.200 209.200 C 97.200 209.420,96.840 209.600,96.400 209.600 C 95.960 209.600,95.600 209.780,95.600 210.000 C 95.600 210.220,95.240 210.400,94.800 210.400 C 94.360 210.400,94.000 210.580,94.000 210.800 C 94.000 211.020,93.712 211.200,93.360 211.200 C 93.009 211.200,92.217 211.740,91.600 212.400 C 90.983 213.060,90.348 213.600,90.187 213.600 C 89.402 213.600,83.830 220.078,82.790 222.200 C 82.466 222.860,82.111 223.490,82.000 223.600 C 81.889 223.710,81.553 224.340,81.253 225.000 C 80.952 225.660,80.548 226.513,80.353 226.895 C 80.159 227.277,80.000 227.941,80.000 228.371 C 80.000 228.801,79.820 229.264,79.600 229.400 C 79.380 229.536,79.200 230.346,79.200 231.200 C 79.200 232.054,79.020 232.864,78.800 233.000 C 78.569 233.142,78.400 235.271,78.400 238.024 C 78.400 240.941,78.556 242.800,78.800 242.800 C 79.020 242.800,79.200 243.509,79.200 244.376 C 79.200 245.243,79.380 246.064,79.600 246.200 C 79.820 246.336,80.000 246.887,80.000 247.424 C 80.000 247.961,80.180 248.400,80.400 248.400 C 80.620 248.400,80.800 248.850,80.800 249.400 C 80.800 249.950,80.980 250.400,81.200 250.400 C 81.420 250.400,81.600 250.760,81.600 251.200 C 81.600 251.998,81.864 252.000,203.500 251.993 L 325.400 251.986 326.258 250.093 C 329.490 242.960,329.352 231.433,325.953 224.700 C 325.327 223.459,324.605 222.205,324.399 222.000 C 324.289 221.890,323.929 221.272,323.599 220.626 C 322.666 218.799,315.727 212.000,314.795 212.000 C 314.578 212.000,314.400 211.854,314.400 211.675 C 314.400 211.496,313.770 211.102,313.000 210.800 C 312.230 210.498,311.600 210.148,311.600 210.023 C 311.600 208.576,303.724 207.096,295.000 206.904 C 290.380 206.802,286.263 206.539,285.852 206.319 C 285.354 206.054,285.186 206.054,285.350 206.319 C 285.704 206.892,284.525 210.599,283.098 213.400 C 273.912 231.435,251.738 236.668,235.672 224.591 C 233.314 222.818,228.616 217.746,228.085 216.400 C 227.955 216.070,227.355 214.958,226.752 213.929 C 225.530 211.845,223.911 206.868,224.267 206.292 C 224.393 206.088,224.127 206.118,223.675 206.360 C 223.110 206.662,216.834 206.800,203.600 206.800 C 190.366 206.800,184.090 206.662,183.525 206.360 C 183.005 206.081,182.797 206.071,182.958 206.332 C 183.098 206.559,182.763 208.084,182.214 209.721 C 174.357 233.126,143.494 238.589,127.932 219.329 C 124.785 215.434,121.091 207.547,121.844 206.329 C 122.096 205.921,121.966 205.929,121.200 206.370 M21.800 214.000 C 21.664 214.220,21.023 214.400,20.376 214.400 C 19.729 214.400,19.200 214.550,19.200 214.732 C 19.200 214.915,18.705 215.319,18.100 215.630 C 16.684 216.357,15.465 217.728,14.418 219.771 C 13.092 222.356,13.480 266.339,14.841 267.780 C 15.038 267.989,15.200 268.681,15.200 269.317 C 15.200 270.402,15.444 270.227,19.100 266.517 C 23.357 262.199,24.746 260.990,26.227 260.315 C 26.762 260.071,27.200 259.754,27.200 259.610 C 27.200 259.467,27.830 259.102,28.600 258.800 C 29.370 258.498,30.000 258.148,30.000 258.023 C 30.000 257.898,30.540 257.556,31.200 257.264 L 32.400 256.733 32.400 238.817 L 32.400 220.901 31.360 219.040 C 30.788 218.017,29.663 216.690,28.860 216.090 C 28.057 215.491,27.340 214.865,27.267 214.700 C 27.193 214.535,26.619 214.400,25.990 214.400 C 25.362 214.400,24.736 214.220,24.600 214.000 C 24.464 213.780,23.834 213.600,23.200 213.600 C 22.566 213.600,21.936 213.780,21.800 214.000 M58.000 266.053 C 46.283 266.295,45.676 266.346,42.671 267.344 C 35.332 269.781,27.901 275.508,24.966 280.989 C 22.871 284.901,22.263 286.203,21.923 287.501 C 20.733 292.050,20.416 294.167,20.415 297.600 C 20.413 300.982,20.631 302.364,21.973 307.487 C 23.504 313.333,30.417 321.664,36.192 324.624 C 37.077 325.077,38.160 325.641,38.600 325.877 C 40.368 326.826,42.865 327.631,46.400 328.393 C 49.573 329.076,358.458 328.899,361.400 328.212 C 366.042 327.128,366.734 326.892,369.785 325.353 C 387.431 316.451,392.317 293.080,379.768 277.604 C 377.335 274.604,372.442 270.400,371.383 270.400 C 371.240 270.400,370.637 270.054,370.043 269.631 C 369.449 269.207,367.261 268.284,365.181 267.578 L 361.400 266.296 349.100 266.048 C 339.190 265.848,336.799 265.900,336.800 266.316 C 336.801 267.390,335.107 272.011,333.851 274.362 C 327.069 287.055,311.251 293.791,297.619 289.791 C 294.670 288.926,293.351 288.356,289.389 286.234 C 283.373 283.012,275.200 271.501,275.200 266.248 C 275.200 265.923,269.588 265.800,254.800 265.800 C 236.938 265.800,234.399 265.875,234.390 266.400 C 234.348 268.945,231.159 275.516,228.176 279.202 C 218.146 291.593,201.653 294.423,187.036 286.259 C 185.815 285.577,180.402 281.192,180.389 280.874 C 180.382 280.723,179.693 279.832,178.857 278.893 C 176.446 276.184,172.800 268.573,172.800 266.248 C 172.800 265.923,167.188 265.800,152.400 265.800 C 134.538 265.800,131.999 265.875,131.990 266.400 C 131.947 269.059,128.374 276.154,125.274 279.739 C 114.838 291.806,99.092 294.333,84.636 286.259 C 83.415 285.577,78.002 281.192,77.989 280.874 C 77.982 280.723,77.293 279.832,76.457 278.893 C 74.445 276.633,72.034 272.068,71.019 268.600 L 70.200 265.800 58.000 266.053 " stroke="none" fill="#047d37" fill-rule="evenodd"></path><path id="path2" d="M158.800 152.627 L 158.800 183.254 159.700 183.013 C 162.728 182.202,164.118 181.664,166.800 180.263 C 183.626 171.474,188.793 148.222,177.139 133.731 C 175.540 131.742,170.445 126.958,169.303 126.374 C 168.696 126.063,167.390 125.350,166.400 124.789 C 165.410 124.228,163.790 123.532,162.800 123.243 C 161.810 122.953,160.587 122.555,160.081 122.358 C 159.576 122.161,159.081 122.000,158.981 122.000 C 158.882 122.000,158.800 135.782,158.800 152.627 M122.154 206.575 C 121.869 207.319,123.346 211.527,124.952 214.543 C 128.417 221.053,135.918 227.341,142.400 229.170 C 143.390 229.449,144.513 229.840,144.895 230.039 C 145.277 230.238,146.267 230.408,147.095 230.417 C 147.923 230.427,149.410 230.592,150.400 230.785 C 162.869 233.210,181.778 219.333,182.537 207.200 L 182.600 206.200 152.488 206.097 C 126.491 206.009,122.346 206.074,122.154 206.575 M224.551 206.583 C 224.226 207.430,226.078 212.308,227.925 215.471 C 231.466 221.534,238.779 227.471,244.800 229.170 C 245.790 229.449,246.913 229.840,247.295 230.039 C 247.677 230.238,248.667 230.408,249.495 230.417 C 250.323 230.427,251.810 230.592,252.800 230.785 C 258.375 231.869,269.066 228.440,274.582 223.800 C 275.628 222.920,276.602 222.110,276.747 222.000 C 276.892 221.890,277.816 220.810,278.800 219.600 C 279.784 218.390,280.685 217.310,280.802 217.200 C 282.051 216.030,285.509 207.224,285.026 206.443 C 284.561 205.689,224.841 205.828,224.551 206.583 M70.954 265.847 C 69.323 266.519,74.949 277.394,79.001 281.400 C 95.273 297.490,124.565 290.812,130.758 269.600 C 131.047 268.610,131.433 267.413,131.615 266.940 C 131.797 266.467,131.839 265.972,131.707 265.840 C 131.430 265.563,71.626 265.570,70.954 265.847 M173.352 265.848 C 172.177 266.331,176.218 275.145,179.442 279.132 C 194.524 297.786,226.555 292.102,233.155 269.600 C 233.446 268.610,233.833 267.413,234.015 266.940 C 234.197 266.467,234.239 265.972,234.107 265.840 C 233.829 265.563,174.026 265.570,173.352 265.848 M275.760 265.845 C 275.464 265.967,275.632 266.955,276.270 268.850 C 285.224 295.440,321.156 298.276,333.915 273.400 C 335.307 270.686,336.844 266.178,336.497 265.830 C 336.228 265.561,276.412 265.576,275.760 265.845 " stroke="none" fill="#fab343" fill-rule="evenodd"></path><path id="path3" d="M159.600 122.200 C 160.150 122.514,160.960 122.764,161.400 122.755 C 161.924 122.745,161.717 122.553,160.800 122.200 C 158.949 121.487,158.353 121.487,159.600 122.200 M158.590 152.600 C 158.590 169.320,158.640 176.102,158.700 167.670 C 158.760 159.239,158.760 145.559,158.700 137.270 C 158.639 128.982,158.590 135.880,158.590 152.600 M163.200 123.258 C 164.470 123.812,166.565 124.878,168.547 125.980 C 169.398 126.452,170.163 126.771,170.246 126.687 C 170.330 126.603,169.904 126.281,169.299 125.971 C 168.695 125.662,167.389 124.942,166.397 124.372 C 165.406 123.802,164.056 123.220,163.397 123.078 C 162.254 122.833,162.245 122.841,163.200 123.258 M173.420 129.824 C 176.475 132.831,178.782 135.563,178.804 136.200 C 178.812 136.420,179.186 137.050,179.636 137.600 C 180.249 138.350,180.187 138.100,179.388 136.600 C 178.402 134.750,175.016 130.472,173.606 129.294 C 171.153 127.245,171.062 127.502,173.420 129.824 M203.600 148.600 L 203.600 156.415 212.700 156.308 L 221.800 156.200 221.800 148.600 L 221.800 141.000 212.700 140.892 L 203.600 140.785 203.600 148.600 M183.069 147.800 C 183.196 149.120,183.368 150.275,183.450 150.367 C 183.741 150.690,183.516 147.386,183.179 146.400 C 182.958 145.752,182.920 146.245,183.069 147.800 M183.070 156.957 C 182.911 158.253,182.861 159.394,182.960 159.493 C 183.226 159.759,183.703 156.218,183.519 155.347 C 183.432 154.936,183.230 155.660,183.070 156.957 M203.691 166.692 L 203.800 174.200 212.690 174.308 L 221.581 174.415 221.805 173.508 C 221.928 173.008,221.977 169.630,221.914 166.000 L 221.800 159.400 212.691 159.292 L 203.582 159.185 203.691 166.692 M181.400 163.600 C 181.250 164.073,181.217 164.550,181.327 164.660 C 181.437 164.770,181.650 164.473,181.800 164.000 C 181.950 163.527,181.983 163.050,181.873 162.940 C 181.763 162.830,181.550 163.127,181.400 163.600 M179.733 167.405 C 177.404 171.868,172.084 177.529,168.500 179.357 C 167.785 179.722,167.200 180.111,167.200 180.221 C 167.200 180.652,169.913 178.983,172.140 177.182 C 175.470 174.487,179.756 168.975,180.912 165.900 C 181.434 164.512,180.860 165.244,179.733 167.405 M203.867 177.067 C 203.720 177.213,203.600 180.633,203.600 184.667 L 203.600 192.000 212.557 192.000 C 220.356 192.000,221.546 191.918,221.757 191.367 C 222.074 190.543,222.074 178.257,221.757 177.433 C 221.504 176.774,204.507 176.426,203.867 177.067 M159.200 183.200 C 158.667 183.545,158.667 183.588,159.200 183.588 C 159.530 183.588,160.070 183.413,160.400 183.200 C 160.933 182.855,160.933 182.812,160.400 182.812 C 160.070 182.812,159.530 182.987,159.200 183.200 M225.418 211.300 C 225.568 211.795,225.855 212.376,226.056 212.591 C 226.257 212.806,226.219 212.401,225.972 211.691 C 225.465 210.238,224.997 209.908,225.418 211.300 M178.584 216.700 C 178.195 217.305,177.166 218.700,176.298 219.800 L 174.719 221.800 176.523 219.816 C 178.218 217.952,179.861 215.600,179.469 215.600 C 179.371 215.600,178.973 216.095,178.584 216.700 M278.881 219.453 C 277.936 220.634,277.244 221.600,277.344 221.600 C 277.631 221.600,280.919 217.583,280.751 217.437 C 280.668 217.366,279.826 218.273,278.881 219.453 M130.200 222.000 C 131.059 222.880,131.852 223.600,131.962 223.600 C 132.072 223.600,131.459 222.880,130.600 222.000 C 129.741 221.120,128.948 220.400,128.838 220.400 C 128.728 220.400,129.341 221.120,130.200 222.000 M233.765 222.900 C 235.095 224.165,236.336 225.200,236.522 225.200 C 236.709 225.200,236.263 224.718,235.531 224.128 C 234.799 223.539,233.558 222.504,232.773 221.828 C 231.989 221.153,232.435 221.635,233.765 222.900 M147.300 230.676 C 147.685 230.776,148.315 230.776,148.700 230.676 C 149.085 230.575,148.770 230.493,148.000 230.493 C 147.230 230.493,146.915 230.575,147.300 230.676 M156.305 230.683 C 156.802 230.779,157.522 230.775,157.905 230.675 C 158.287 230.575,157.880 230.496,157.000 230.501 C 156.120 230.505,155.807 230.587,156.305 230.683 M249.700 230.676 C 250.085 230.776,250.715 230.776,251.100 230.676 C 251.485 230.575,251.170 230.493,250.400 230.493 C 249.630 230.493,249.315 230.575,249.700 230.676 M258.500 230.676 C 258.885 230.776,259.515 230.776,259.900 230.676 C 260.285 230.575,259.970 230.493,259.200 230.493 C 258.430 230.493,258.115 230.575,258.500 230.676 M70.655 267.500 C 71.085 269.257,71.941 271.449,71.972 270.875 C 72.005 270.251,70.779 266.400,70.546 266.400 C 70.457 266.400,70.506 266.895,70.655 267.500 M131.400 267.200 C 131.250 267.673,131.217 268.150,131.327 268.260 C 131.437 268.370,131.650 268.073,131.800 267.600 C 131.950 267.127,131.983 266.650,131.873 266.540 C 131.763 266.430,131.550 266.727,131.400 267.200 M172.800 266.548 C 172.800 268.594,176.620 276.380,178.857 278.893 C 179.693 279.832,180.382 280.723,180.389 280.874 C 180.404 281.254,186.406 286.127,186.609 285.925 C 186.699 285.835,185.562 284.817,184.082 283.664 C 179.510 280.100,175.506 274.260,173.822 268.700 C 173.244 266.791,172.800 265.856,172.800 266.548 M233.800 267.200 C 233.650 267.673,233.617 268.150,233.727 268.260 C 233.837 268.370,234.050 268.073,234.200 267.600 C 234.350 267.127,234.383 266.650,234.273 266.540 C 234.163 266.430,233.950 266.727,233.800 267.200 M275.200 266.548 C 275.200 268.329,279.130 276.673,280.550 277.907 C 281.156 278.433,281.107 278.263,280.347 277.200 C 278.868 275.130,277.015 271.313,276.223 268.700 C 275.644 266.791,275.200 265.857,275.200 266.548 M335.429 269.829 C 335.281 270.415,335.238 270.972,335.332 271.066 C 335.427 271.160,335.624 270.758,335.771 270.171 C 335.919 269.585,335.962 269.028,335.868 268.934 C 335.773 268.840,335.576 269.242,335.429 269.829 M73.864 275.110 C 74.471 276.271,75.645 277.981,76.473 278.910 C 77.300 279.840,77.982 280.723,77.989 280.874 C 78.002 281.202,83.820 286.000,84.204 286.000 C 84.350 286.000,83.329 285.056,81.935 283.903 C 78.566 281.117,74.414 276.440,74.391 275.406 C 74.386 275.183,74.017 274.550,73.571 274.000 C 72.989 273.282,73.072 273.596,73.864 275.110 M128.408 274.785 C 127.537 276.492,124.424 280.553,123.099 281.710 C 122.652 282.101,122.378 282.512,122.490 282.623 C 122.817 282.950,127.386 277.360,128.568 275.187 C 129.163 274.094,129.552 273.200,129.433 273.200 C 129.314 273.200,128.852 273.913,128.408 274.785 M333.231 274.740 C 332.799 275.587,331.797 277.162,331.006 278.240 L 329.566 280.200 331.021 278.600 C 332.354 277.133,334.681 273.200,334.215 273.200 C 334.106 273.200,333.663 273.893,333.231 274.740 M229.802 276.500 C 229.195 277.435,228.406 278.570,228.049 279.023 C 227.692 279.476,228.001 279.206,228.736 278.423 C 229.951 277.129,231.447 274.800,231.063 274.800 C 230.977 274.800,230.409 275.565,229.802 276.500 M282.242 280.122 C 283.430 281.683,288.724 286.209,289.019 285.915 C 289.109 285.825,288.245 285.042,287.099 284.175 C 285.953 283.309,284.131 281.700,283.050 280.600 C 281.427 278.948,281.286 278.865,282.242 280.122 M225.674 281.482 C 225.164 282.031,224.817 282.550,224.903 282.636 C 224.988 282.722,225.574 282.254,226.204 281.596 C 226.834 280.938,227.181 280.419,226.975 280.442 C 226.769 280.465,226.183 280.934,225.674 281.482 M328.074 281.520 C 327.564 282.048,327.218 282.552,327.305 282.639 C 327.392 282.726,327.885 282.348,328.400 281.800 C 328.915 281.252,329.261 280.748,329.168 280.681 C 329.076 280.614,328.583 280.992,328.074 281.520 M120.400 284.047 C 119.630 284.715,118.127 285.710,117.060 286.258 C 115.993 286.805,115.201 287.334,115.299 287.433 C 115.595 287.728,118.935 285.715,120.623 284.225 C 121.491 283.460,122.110 282.833,122.000 282.833 C 121.890 282.833,121.170 283.379,120.400 284.047 M222.800 284.025 C 222.030 284.698,220.527 285.700,219.460 286.251 C 218.393 286.803,217.601 287.334,217.699 287.433 C 217.995 287.728,221.335 285.715,223.023 284.225 C 223.891 283.460,224.510 282.826,224.400 282.818 C 224.290 282.809,223.570 283.352,222.800 284.025 M325.200 284.023 C 324.430 284.685,322.927 285.682,321.860 286.240 C 320.793 286.797,320.001 287.334,320.099 287.433 C 320.395 287.728,323.735 285.715,325.423 284.225 C 326.291 283.460,326.910 282.831,326.800 282.827 C 326.690 282.824,325.970 283.362,325.200 284.023 M84.800 286.179 C 84.800 286.289,85.340 286.659,86.000 287.000 C 86.660 287.341,87.200 287.531,87.200 287.421 C 87.200 287.311,86.660 286.941,86.000 286.600 C 85.340 286.259,84.800 286.069,84.800 286.179 M187.200 286.179 C 187.200 286.289,187.740 286.659,188.400 287.000 C 189.060 287.341,189.600 287.531,189.600 287.421 C 189.600 287.311,189.060 286.941,188.400 286.600 C 187.740 286.259,187.200 286.069,187.200 286.179 M289.600 286.179 C 289.600 286.289,290.140 286.659,290.800 287.000 C 291.460 287.341,292.000 287.531,292.000 287.421 C 292.000 287.311,291.460 286.941,290.800 286.600 C 290.140 286.259,289.600 286.069,289.600 286.179 M87.800 287.907 C 88.226 288.359,93.038 290.022,93.766 289.968 C 94.005 289.951,93.030 289.527,91.600 289.027 C 90.170 288.526,88.640 287.974,88.200 287.800 C 87.642 287.578,87.521 287.611,87.800 287.907 M190.000 287.795 C 190.000 288.049,192.765 289.203,193.349 289.191 C 193.597 289.186,193.015 288.826,192.056 288.391 C 190.196 287.547,190.000 287.490,190.000 287.795 M292.400 287.795 C 292.400 288.049,295.165 289.203,295.749 289.191 C 295.997 289.186,295.415 288.826,294.456 288.391 C 292.596 287.547,292.400 287.490,292.400 287.795 M109.200 289.600 C 108.376 289.864,108.341 289.926,109.000 289.954 C 109.440 289.973,110.070 289.813,110.400 289.600 C 111.101 289.147,110.614 289.147,109.200 289.600 M194.600 289.600 C 195.040 289.789,195.670 289.944,196.000 289.944 C 196.378 289.944,196.304 289.817,195.800 289.600 C 195.360 289.411,194.730 289.256,194.400 289.256 C 194.022 289.256,194.096 289.383,194.600 289.600 M211.600 289.600 C 210.776 289.864,210.741 289.926,211.400 289.954 C 211.840 289.973,212.470 289.813,212.800 289.600 C 213.501 289.147,213.014 289.147,211.600 289.600 M297.000 289.600 C 297.440 289.789,298.070 289.944,298.400 289.944 C 298.778 289.944,298.704 289.817,298.200 289.600 C 297.760 289.411,297.130 289.256,296.800 289.256 C 296.422 289.256,296.496 289.383,297.000 289.600 M313.800 289.600 C 313.296 289.817,313.222 289.944,313.600 289.944 C 313.930 289.944,314.560 289.789,315.000 289.600 C 315.504 289.383,315.578 289.256,315.200 289.256 C 314.870 289.256,314.240 289.411,313.800 289.600 M95.000 290.408 C 95.763 290.728,100.714 290.957,100.367 290.655 C 100.275 290.576,98.850 290.412,97.200 290.291 C 95.427 290.162,94.527 290.210,95.000 290.408 M104.200 290.400 L 101.800 290.666 104.200 290.705 C 105.520 290.726,106.960 290.589,107.400 290.400 L 108.200 290.056 107.400 290.095 C 106.960 290.117,105.520 290.254,104.200 290.400 M197.400 290.408 C 198.163 290.728,203.114 290.957,202.767 290.655 C 202.675 290.576,201.250 290.412,199.600 290.291 C 197.827 290.162,196.927 290.210,197.400 290.408 M206.600 290.400 L 204.200 290.666 206.600 290.705 C 207.920 290.726,209.360 290.589,209.800 290.400 L 210.600 290.056 209.800 290.095 C 209.360 290.117,207.920 290.254,206.600 290.400 M299.800 290.408 C 300.563 290.728,305.514 290.957,305.167 290.655 C 305.075 290.576,303.650 290.412,302.000 290.291 C 300.227 290.162,299.327 290.210,299.800 290.408 M309.000 290.400 L 306.600 290.666 309.000 290.705 C 310.320 290.726,311.760 290.589,312.200 290.400 L 313.000 290.056 312.200 290.095 C 311.760 290.117,310.320 290.254,309.000 290.400 " stroke="none" fill="#6ba87c" fill-rule="evenodd"></path><path id="path4" d="M198.800 71.265 C 175.138 76.333,159.086 94.609,158.632 117.000 C 158.578 119.640,158.588 120.450,158.654 118.800 C 159.308 102.477,167.096 88.226,180.204 79.370 C 183.862 76.898,188.661 74.400,189.751 74.400 C 190.082 74.400,190.451 74.241,190.570 74.048 C 190.690 73.854,191.286 73.576,191.894 73.430 C 192.502 73.284,193.720 72.980,194.600 72.754 C 198.975 71.633,201.657 71.481,219.618 71.334 C 241.494 71.155,243.173 71.334,249.672 74.553 C 258.743 79.045,265.410 88.252,266.940 98.400 C 267.032 99.008,267.112 98.773,267.146 97.801 C 267.360 91.515,259.485 79.284,252.954 75.762 C 252.099 75.300,250.744 74.549,249.943 74.093 C 249.142 73.636,246.982 72.754,245.143 72.133 L 241.800 71.003 221.200 70.941 C 209.232 70.905,199.846 71.041,198.800 71.265 M210.217 95.724 C 202.982 100.126,208.249 110.856,215.841 107.180 C 221.953 104.221,219.672 95.136,212.839 95.224 C 211.827 95.236,210.648 95.461,210.217 95.724 M215.592 96.301 C 218.598 97.811,219.748 101.839,217.995 104.716 C 215.785 108.340,209.701 108.091,207.809 104.299 C 205.258 99.184,210.535 93.760,215.592 96.301 M267.337 103.000 C 267.339 104.760,267.409 105.430,267.493 104.489 C 267.578 103.549,267.577 102.109,267.491 101.289 C 267.405 100.470,267.336 101.240,267.337 103.000 M266.691 108.181 C 266.354 110.420,265.813 112.227,264.738 114.696 C 264.332 115.628,264.000 116.485,264.000 116.600 C 264.000 116.715,263.164 118.067,262.141 119.605 L 260.283 122.400 258.391 122.400 C 253.630 122.400,251.155 124.245,250.553 128.242 C 250.157 130.880,250.061 130.959,245.200 132.649 C 243.770 133.146,242.887 133.564,243.237 133.577 C 244.031 133.606,247.842 132.309,249.535 131.434 C 250.534 130.917,250.800 130.524,250.800 129.564 C 250.800 125.472,253.782 122.800,258.349 122.800 L 260.706 122.800 262.323 120.300 C 265.129 115.964,267.417 109.805,267.128 107.369 C 267.017 106.435,266.929 106.598,266.691 108.181 M237.600 134.000 L 235.400 134.270 238.200 134.307 C 239.740 134.327,241.360 134.189,241.800 134.000 C 242.774 133.582,241.015 133.582,237.600 134.000 M224.761 135.391 C 222.187 137.079,221.990 137.994,222.077 147.860 L 222.153 156.600 222.377 147.319 L 222.600 138.039 224.109 136.657 C 224.939 135.897,226.289 135.097,227.109 134.879 C 228.539 134.499,228.551 134.482,227.400 134.465 C 226.740 134.455,225.553 134.872,224.761 135.391 M221.964 166.700 C 221.944 171.045,221.899 178.650,221.864 183.600 L 221.800 192.600 190.313 192.702 L 158.825 192.805 158.699 188.102 L 158.572 183.400 158.486 188.300 L 158.400 193.200 190.157 193.200 C 217.931 193.200,221.943 193.125,222.143 192.604 C 222.415 191.896,222.457 158.800,222.186 158.800 C 222.084 158.800,221.984 162.355,221.964 166.700 M105.800 206.210 C 97.687 207.244,92.371 209.907,86.543 215.855 C 82.493 219.988,80.610 223.422,78.372 230.754 C 76.816 235.850,77.878 245.327,80.650 251.100 L 81.659 253.200 203.623 253.200 L 325.587 253.200 326.554 251.290 C 330.495 243.513,330.420 230.603,326.395 223.800 C 326.004 223.140,325.350 221.970,324.942 221.200 C 320.840 213.462,311.383 207.477,301.215 206.183 C 294.859 205.375,112.156 205.399,105.800 206.210 M203.700 206.400 C 214.645 206.398,237.595 206.384,254.700 206.368 C 291.819 206.334,301.586 206.634,306.200 207.949 C 309.726 208.955,311.600 209.674,311.600 210.023 C 311.600 210.148,312.230 210.498,313.000 210.800 C 313.770 211.102,314.400 211.496,314.400 211.675 C 314.400 211.854,314.578 212.000,314.795 212.000 C 315.727 212.000,322.666 218.799,323.599 220.626 C 323.929 221.272,324.289 221.890,324.399 222.000 C 324.605 222.205,325.327 223.459,325.953 224.700 C 329.352 231.433,329.490 242.960,326.258 250.093 L 325.400 251.986 203.500 251.993 C 81.864 252.000,81.600 251.998,81.600 251.200 C 81.600 250.760,81.420 250.400,81.200 250.400 C 80.980 250.400,80.800 249.950,80.800 249.400 C 80.800 248.850,80.620 248.400,80.400 248.400 C 80.180 248.400,80.000 247.961,80.000 247.424 C 80.000 246.887,79.820 246.336,79.600 246.200 C 79.380 246.064,79.200 245.243,79.200 244.376 C 79.200 243.509,79.020 242.800,78.800 242.800 C 78.556 242.800,78.400 240.941,78.400 238.024 C 78.400 235.271,78.569 233.142,78.800 233.000 C 79.020 232.864,79.200 232.054,79.200 231.200 C 79.200 230.346,79.380 229.536,79.600 229.400 C 79.820 229.264,80.000 228.801,80.000 228.371 C 80.000 227.941,80.159 227.277,80.353 226.895 C 80.548 226.513,80.952 225.660,81.253 225.000 C 81.553 224.340,81.889 223.710,82.000 223.600 C 82.111 223.490,82.466 222.860,82.790 222.200 C 83.830 220.078,89.402 213.600,90.187 213.600 C 90.348 213.600,90.983 213.060,91.600 212.400 C 92.217 211.740,93.009 211.200,93.360 211.200 C 93.712 211.200,94.000 211.020,94.000 210.800 C 94.000 210.580,94.360 210.400,94.800 210.400 C 95.240 210.400,95.600 210.220,95.600 210.000 C 95.600 209.780,95.960 209.600,96.400 209.600 C 96.840 209.600,97.200 209.420,97.200 209.200 C 97.200 208.980,97.515 208.798,97.900 208.795 C 98.285 208.792,99.770 208.405,101.200 207.935 C 103.421 207.206,105.024 207.055,112.200 206.898 C 116.820 206.798,120.870 206.559,121.200 206.367 C 121.534 206.173,135.530 206.104,152.800 206.211 C 169.850 206.316,192.755 206.401,203.700 206.400 M19.156 213.954 C 12.583 217.241,12.274 218.574,12.544 242.400 C 12.767 262.134,13.122 266.624,14.802 271.000 L 15.262 272.200 16.523 270.600 C 19.935 266.267,28.576 258.800,30.176 258.800 C 30.308 258.800,31.138 258.344,32.020 257.788 L 33.624 256.775 33.512 238.888 C 33.386 218.708,33.507 219.533,30.163 216.141 C 27.274 213.210,22.529 212.267,19.156 213.954 M24.600 214.000 C 24.736 214.220,25.362 214.400,25.990 214.400 C 26.619 214.400,27.193 214.535,27.267 214.700 C 27.340 214.865,28.057 215.491,28.860 216.090 C 29.663 216.690,30.788 218.017,31.360 219.040 L 32.400 220.901 32.400 238.817 L 32.400 256.733 31.200 257.264 C 30.540 257.556,30.000 257.898,30.000 258.023 C 30.000 258.148,29.370 258.498,28.600 258.800 C 27.830 259.102,27.200 259.467,27.200 259.610 C 27.200 259.754,26.762 260.071,26.227 260.315 C 24.746 260.990,23.357 262.199,19.100 266.517 C 15.444 270.227,15.200 270.402,15.200 269.317 C 15.200 268.681,15.038 267.989,14.841 267.780 C 13.480 266.339,13.092 222.356,14.418 219.771 C 15.465 217.728,16.684 216.357,18.100 215.630 C 18.705 215.319,19.200 214.915,19.200 214.732 C 19.200 214.550,19.729 214.400,20.376 214.400 C 21.023 214.400,21.664 214.220,21.800 214.000 C 21.936 213.780,22.566 213.600,23.200 213.600 C 23.834 213.600,24.464 213.780,24.600 214.000 M43.846 266.579 C 36.949 268.404,31.578 271.831,27.204 277.200 C 26.218 278.410,25.312 279.490,25.191 279.600 C 24.519 280.211,21.956 285.797,21.246 288.200 C 17.051 302.385,23.217 318.016,35.739 324.940 C 36.872 325.567,37.980 326.211,38.200 326.371 C 38.420 326.532,40.220 327.189,42.200 327.831 L 45.800 329.000 203.600 329.000 C 356.004 329.000,361.482 328.975,363.800 328.260 C 366.420 327.452,367.770 326.938,369.000 326.277 C 369.440 326.041,370.579 325.450,371.530 324.963 C 372.482 324.476,373.742 323.652,374.330 323.131 C 374.919 322.610,376.051 321.689,376.846 321.085 C 379.829 318.820,384.364 312.003,385.550 308.000 C 385.843 307.010,386.245 305.787,386.442 305.281 C 386.639 304.776,386.775 303.786,386.746 303.081 C 386.700 302.011,386.663 301.965,386.523 302.800 C 384.996 311.891,378.129 321.144,369.785 325.353 C 366.734 326.892,366.042 327.128,361.400 328.212 C 358.458 328.899,49.573 329.076,46.400 328.393 C 42.865 327.631,40.368 326.826,38.600 325.877 C 38.160 325.641,37.077 325.077,36.192 324.624 C 30.417 321.664,23.504 313.333,21.973 307.487 C 20.631 302.364,20.413 300.982,20.415 297.600 C 20.416 294.167,20.733 292.050,21.923 287.501 C 22.263 286.203,22.871 284.901,24.966 280.989 C 27.901 275.508,35.332 269.781,42.671 267.344 C 45.665 266.350,46.325 266.293,58.000 266.024 L 70.200 265.743 58.800 265.691 C 48.015 265.641,47.208 265.689,43.846 266.579 M142.300 265.900 C 147.855 265.962,156.945 265.962,162.500 265.900 C 168.055 265.837,163.510 265.786,152.400 265.786 C 141.290 265.786,136.745 265.837,142.300 265.900 M244.700 265.900 C 250.255 265.962,259.345 265.962,264.900 265.900 C 270.455 265.837,265.910 265.786,254.800 265.786 C 243.690 265.786,239.145 265.837,244.700 265.900 M349.200 266.017 L 361.400 266.292 365.181 267.576 C 367.261 268.283,369.449 269.207,370.043 269.631 C 370.637 270.054,371.240 270.400,371.383 270.400 C 371.748 270.400,373.959 271.945,375.962 273.600 C 380.824 277.617,385.405 285.602,386.517 292.000 C 386.685 292.964,386.693 292.959,386.746 291.884 C 387.070 285.228,379.094 274.035,370.800 269.506 C 364.536 266.085,361.569 265.584,348.080 265.672 L 337.000 265.743 349.200 266.017 M386.895 297.400 C 386.895 300.205,387.005 301.365,387.200 300.600 C 387.368 299.940,387.505 298.500,387.505 297.400 C 387.505 296.300,387.368 294.860,387.200 294.200 C 387.005 293.435,386.895 294.595,386.895 297.400 " stroke="none" fill="#054f2c" fill-rule="evenodd"></path></g></svg>